<svg xmlns="http://www.w3.org/2000/svg" width="34" height="38" viewBox="0 0 34 38"><g fill="#FF6900" fill-rule="evenodd"><path d="M0 .6v3.45c0 .316.192.6.456.6h32.856c.264 0 .456-.284.456-.6V.6c0-.314-.19-.596-.45-.6H.45C.19.004 0 .286 0 .6m0 32.992v3.449c0 .316.192.601.456.601h32.856c.264 0 .456-.285.456-.601v-3.45c0-.313-.19-.596-.45-.6H.45c-.26.004-.45.287-.45.6m12.64-4.409V8.46a.51.51 0 0 0-.503-.48H5.544a.498.498 0 0 0-.505.506v20.671c0 .273.21.504.505.504h6.593a.51.51 0 0 0 .502-.479"/><path d="M12.764 17.834c-.063.076-.127.282-.127.436v.128c0 .154.064.359.127.436l1.557 2.225 5.608 8.385c.062.093.34.217.558.217h7.517c.59 0 .93-.682.59-1.147l-7.317-10.186 7.046-9.192c.34-.466.03-1.148-.558-1.148H20.52c-.186 0-.465.155-.589.31l-7.168 9.536z"/></g></svg>